<mxfile host="app.diagrams.net" modified="2023-05-21T12:13:29.709Z" agent="Mozilla/5.0 (Windows NT 10.0; Win64; x64) AppleWebKit/537.36 (KHTML, like Gecko) Chrome/113.0.0.0 Safari/537.36 Edg/113.0.1774.50" etag="iDQjKC8LuVJi-Wy0jDXx" version="21.3.2" type="device">
  <diagram name="Page-1" id="2YBvvXClWsGukQMizWep">
    <mxGraphModel dx="1150" dy="546" grid="1" gridSize="10" guides="1" tooltips="1" connect="1" arrows="1" fold="1" page="1" pageScale="1" pageWidth="850" pageHeight="1100" math="0" shadow="0">
      <root>
        <mxCell id="0" />
        <mxCell id="1" parent="0" />
        <mxCell id="uHuj9NdNtawoRyD4EZtH-32" value="" style="rounded=0;whiteSpace=wrap;html=1;fillColor=none;" parent="1" vertex="1">
          <mxGeometry x="131" y="320" width="390" height="240" as="geometry" />
        </mxCell>
        <mxCell id="uHuj9NdNtawoRyD4EZtH-1" value=":User_Manager" style="shape=umlLifeline;perimeter=lifelinePerimeter;whiteSpace=wrap;html=1;container=1;collapsible=0;recursiveResize=0;outlineConnect=0;rounded=1;shadow=0;comic=0;labelBackgroundColor=none;strokeWidth=1;fontFamily=Verdana;fontSize=12;align=center;" parent="1" vertex="1">
          <mxGeometry x="420" y="40" width="110" height="500" as="geometry" />
        </mxCell>
        <mxCell id="uHuj9NdNtawoRyD4EZtH-17" value="" style="rounded=0;whiteSpace=wrap;html=1;" parent="uHuj9NdNtawoRyD4EZtH-1" vertex="1">
          <mxGeometry x="50" y="160" width="10" height="180" as="geometry" />
        </mxCell>
        <mxCell id="uHuj9NdNtawoRyD4EZtH-55" value="" style="rounded=0;whiteSpace=wrap;html=1;" parent="uHuj9NdNtawoRyD4EZtH-1" vertex="1">
          <mxGeometry x="50" y="401" width="10" height="60" as="geometry" />
        </mxCell>
        <mxCell id="uHuj9NdNtawoRyD4EZtH-75" value="" style="html=1;verticalAlign=bottom;endArrow=block;edgeStyle=elbowEdgeStyle;elbow=vertical;curved=0;rounded=0;" parent="uHuj9NdNtawoRyD4EZtH-1" edge="1">
          <mxGeometry relative="1" as="geometry">
            <mxPoint x="-115" y="161" as="sourcePoint" />
            <Array as="points">
              <mxPoint x="-35" y="161" />
            </Array>
            <mxPoint x="50" y="161" as="targetPoint" />
          </mxGeometry>
        </mxCell>
        <mxCell id="uHuj9NdNtawoRyD4EZtH-2" value=":Database" style="shape=umlLifeline;perimeter=lifelinePerimeter;whiteSpace=wrap;html=1;container=1;collapsible=0;recursiveResize=0;outlineConnect=0;rounded=1;shadow=0;comic=0;labelBackgroundColor=none;strokeWidth=1;fontFamily=Verdana;fontSize=12;align=center;" parent="1" vertex="1">
          <mxGeometry x="600" y="40" width="100" height="500" as="geometry" />
        </mxCell>
        <mxCell id="uHuj9NdNtawoRyD4EZtH-19" value="" style="rounded=0;whiteSpace=wrap;html=1;" parent="uHuj9NdNtawoRyD4EZtH-2" vertex="1">
          <mxGeometry x="45" y="175" width="10" height="40" as="geometry" />
        </mxCell>
        <mxCell id="uHuj9NdNtawoRyD4EZtH-30" value="" style="html=1;verticalAlign=bottom;endArrow=open;dashed=1;endSize=8;edgeStyle=elbowEdgeStyle;elbow=vertical;curved=0;rounded=0;" parent="uHuj9NdNtawoRyD4EZtH-2" edge="1">
          <mxGeometry relative="1" as="geometry">
            <mxPoint x="-120" y="215" as="targetPoint" />
            <Array as="points">
              <mxPoint x="-30" y="215" />
            </Array>
            <mxPoint x="45" y="215" as="sourcePoint" />
          </mxGeometry>
        </mxCell>
        <mxCell id="uHuj9NdNtawoRyD4EZtH-4" value=":UI" style="shape=umlLifeline;perimeter=lifelinePerimeter;whiteSpace=wrap;html=1;container=1;collapsible=0;recursiveResize=0;outlineConnect=0;rounded=1;shadow=0;comic=0;labelBackgroundColor=none;strokeWidth=1;fontFamily=Verdana;fontSize=12;align=center;" parent="1" vertex="1">
          <mxGeometry x="250" y="40" width="100" height="500" as="geometry" />
        </mxCell>
        <mxCell id="uHuj9NdNtawoRyD4EZtH-5" value="" style="rounded=0;whiteSpace=wrap;html=1;" parent="uHuj9NdNtawoRyD4EZtH-4" vertex="1">
          <mxGeometry x="45" y="90" width="10" height="20" as="geometry" />
        </mxCell>
        <mxCell id="uHuj9NdNtawoRyD4EZtH-54" value="" style="rounded=0;whiteSpace=wrap;html=1;" parent="uHuj9NdNtawoRyD4EZtH-4" vertex="1">
          <mxGeometry x="45" y="401" width="10" height="89" as="geometry" />
        </mxCell>
        <mxCell id="uHuj9NdNtawoRyD4EZtH-89" value="" style="endArrow=open;endFill=1;endSize=12;html=1;rounded=0;" parent="uHuj9NdNtawoRyD4EZtH-4" edge="1">
          <mxGeometry width="160" relative="1" as="geometry">
            <mxPoint x="220" y="340" as="sourcePoint" />
            <mxPoint x="55" y="340" as="targetPoint" />
          </mxGeometry>
        </mxCell>
        <mxCell id="6b6IpoyL6Wd1Q3w2akw8-5" value="" style="rounded=0;whiteSpace=wrap;html=1;" parent="uHuj9NdNtawoRyD4EZtH-4" vertex="1">
          <mxGeometry x="45" y="130" width="10" height="220" as="geometry" />
        </mxCell>
        <mxCell id="uHuj9NdNtawoRyD4EZtH-10" value="inputSignData&lt;br&gt;(str ID, str PW)" style="text;html=1;strokeColor=none;fillColor=none;align=center;verticalAlign=middle;whiteSpace=wrap;rounded=0;" parent="1" vertex="1">
          <mxGeometry x="135" y="104" width="150" height="20" as="geometry" />
        </mxCell>
        <mxCell id="uHuj9NdNtawoRyD4EZtH-13" value="signIn(SignData)" style="text;html=1;strokeColor=none;fillColor=none;align=center;verticalAlign=middle;whiteSpace=wrap;rounded=0;" parent="1" vertex="1">
          <mxGeometry x="305" y="181" width="140" height="20" as="geometry" />
        </mxCell>
        <mxCell id="uHuj9NdNtawoRyD4EZtH-31" value="returnSignData(SignData)" style="text;html=1;strokeColor=none;fillColor=none;align=center;verticalAlign=middle;whiteSpace=wrap;rounded=0;" parent="1" vertex="1">
          <mxGeometry x="500" y="234" width="135" height="20" as="geometry" />
        </mxCell>
        <mxCell id="uHuj9NdNtawoRyD4EZtH-33" value="" style="endArrow=none;html=1;rounded=0;exitX=0;exitY=0.5;exitDx=0;exitDy=0;entryX=1;entryY=0.5;entryDx=0;entryDy=0;" parent="1" edge="1">
          <mxGeometry width="50" height="50" relative="1" as="geometry">
            <mxPoint x="131" y="441" as="sourcePoint" />
            <mxPoint x="521" y="441" as="targetPoint" />
          </mxGeometry>
        </mxCell>
        <mxCell id="uHuj9NdNtawoRyD4EZtH-37" value="입력정보 일치" style="rounded=0;whiteSpace=wrap;html=1;" parent="1" vertex="1">
          <mxGeometry x="131" y="320" width="80" height="20" as="geometry" />
        </mxCell>
        <mxCell id="uHuj9NdNtawoRyD4EZtH-38" value="입력정보 불일치" style="rounded=0;whiteSpace=wrap;html=1;" parent="1" vertex="1">
          <mxGeometry x="131" y="441" width="90" height="20" as="geometry" />
        </mxCell>
        <mxCell id="uHuj9NdNtawoRyD4EZtH-45" value="permissionSignin()" style="text;html=1;strokeColor=none;fillColor=none;align=center;verticalAlign=middle;whiteSpace=wrap;rounded=0;" parent="1" vertex="1">
          <mxGeometry x="347" y="355" width="80" height="30" as="geometry" />
        </mxCell>
        <mxCell id="uHuj9NdNtawoRyD4EZtH-59" value="requestReEnter()" style="text;html=1;strokeColor=none;fillColor=none;align=center;verticalAlign=middle;whiteSpace=wrap;rounded=0;" parent="1" vertex="1">
          <mxGeometry x="144.5" y="510" width="140" height="20" as="geometry" />
        </mxCell>
        <mxCell id="uHuj9NdNtawoRyD4EZtH-63" value="getSigData()" style="text;html=1;strokeColor=none;fillColor=none;align=center;verticalAlign=middle;whiteSpace=wrap;rounded=0;" parent="1" vertex="1">
          <mxGeometry x="520" y="195" width="80" height="20" as="geometry" />
        </mxCell>
        <mxCell id="uHuj9NdNtawoRyD4EZtH-64" value="" style="rounded=0;whiteSpace=wrap;html=1;" parent="1" vertex="1">
          <mxGeometry x="475" y="275" width="10" height="40" as="geometry" />
        </mxCell>
        <mxCell id="uHuj9NdNtawoRyD4EZtH-68" value="checkSignData&lt;br&gt;(SignData)" style="text;html=1;strokeColor=none;fillColor=none;align=center;verticalAlign=middle;whiteSpace=wrap;rounded=0;" parent="1" vertex="1">
          <mxGeometry x="507" y="272" width="100" height="30" as="geometry" />
        </mxCell>
        <mxCell id="uHuj9NdNtawoRyD4EZtH-78" value="failSignin()" style="text;html=1;strokeColor=none;fillColor=none;align=center;verticalAlign=middle;whiteSpace=wrap;rounded=0;" parent="1" vertex="1">
          <mxGeometry x="348" y="476" width="80" height="30" as="geometry" />
        </mxCell>
        <mxCell id="uHuj9NdNtawoRyD4EZtH-82" value="" style="html=1;verticalAlign=bottom;endArrow=block;edgeStyle=elbowEdgeStyle;rounded=0;" parent="1" edge="1">
          <mxGeometry relative="1" as="geometry">
            <mxPoint x="485" y="275" as="sourcePoint" />
            <Array as="points">
              <mxPoint x="510" y="290" />
            </Array>
            <mxPoint x="485" y="300" as="targetPoint" />
          </mxGeometry>
        </mxCell>
        <mxCell id="uHuj9NdNtawoRyD4EZtH-88" value="" style="endArrow=open;endFill=1;endSize=12;html=1;rounded=0;entryX=0;entryY=0;entryDx=0;entryDy=0;" parent="1" edge="1">
          <mxGeometry width="160" relative="1" as="geometry">
            <mxPoint x="480" y="215" as="sourcePoint" />
            <mxPoint x="645" y="215" as="targetPoint" />
          </mxGeometry>
        </mxCell>
        <mxCell id="uHuj9NdNtawoRyD4EZtH-90" value="" style="endArrow=open;endFill=1;endSize=12;html=1;rounded=0;" parent="1" edge="1">
          <mxGeometry width="160" relative="1" as="geometry">
            <mxPoint x="470" y="501" as="sourcePoint" />
            <mxPoint x="305" y="501" as="targetPoint" />
          </mxGeometry>
        </mxCell>
        <mxCell id="6b6IpoyL6Wd1Q3w2akw8-1" value="" style="html=1;verticalAlign=bottom;startArrow=circle;startFill=1;endArrow=open;startSize=6;endSize=8;edgeStyle=elbowEdgeStyle;elbow=vertical;curved=0;rounded=0;entryX=0;entryY=0;entryDx=0;entryDy=0;" parent="1" target="uHuj9NdNtawoRyD4EZtH-5" edge="1">
          <mxGeometry x="0.2488" y="10" width="80" relative="1" as="geometry">
            <mxPoint x="111" y="130" as="sourcePoint" />
            <mxPoint x="294" y="130.0000000000004" as="targetPoint" />
            <Array as="points">
              <mxPoint x="201" y="130" />
            </Array>
            <mxPoint as="offset" />
          </mxGeometry>
        </mxCell>
        <mxCell id="6b6IpoyL6Wd1Q3w2akw8-4" value="" style="endArrow=open;endFill=1;endSize=12;html=1;rounded=0;" parent="1" edge="1">
          <mxGeometry width="160" relative="1" as="geometry">
            <mxPoint x="295" y="511" as="sourcePoint" />
            <mxPoint x="120" y="130" as="targetPoint" />
            <Array as="points">
              <mxPoint x="120" y="510" />
            </Array>
          </mxGeometry>
        </mxCell>
        <mxCell id="6b6IpoyL6Wd1Q3w2akw8-6" value="" style="html=1;verticalAlign=bottom;endArrow=block;edgeStyle=elbowEdgeStyle;rounded=0;entryX=1;entryY=0;entryDx=0;entryDy=0;" parent="1" target="6b6IpoyL6Wd1Q3w2akw8-5" edge="1">
          <mxGeometry relative="1" as="geometry">
            <mxPoint x="306" y="143" as="sourcePoint" />
            <Array as="points">
              <mxPoint x="331" y="158" />
            </Array>
            <mxPoint x="306" y="168" as="targetPoint" />
          </mxGeometry>
        </mxCell>
        <mxCell id="6b6IpoyL6Wd1Q3w2akw8-7" value="creat&amp;lt;&amp;lt;SignData&amp;gt;&amp;gt;&lt;br&gt;(SignData)" style="text;html=1;strokeColor=none;fillColor=none;align=center;verticalAlign=middle;whiteSpace=wrap;rounded=0;" parent="1" vertex="1">
          <mxGeometry x="335" y="140" width="100" height="30" as="geometry" />
        </mxCell>
      </root>
    </mxGraphModel>
  </diagram>
</mxfile>
